# xmcd
#
# Track frame offsets: 
#        150
#        13952
#        31905
#        45477
#        61202
#        76262
#        94637
#        110200
#        124847
#        146002
#        162370
#        174807
#        187232
#        210357
#        257475
#
# Disc length: 3438 seconds
#
# Revision: 5
# Processed by: cddbd v1.5.2PL0 Copyright (c) Steve Scherf et al.
# Submitted via: ExactAudioCopy v1.1
#
DISCID=c70d6c0f
DTITLE=Whiskeytown - Pneumonia
DYEAR=2001
DGENRE=Country
TTITLE0=The Ballad Of Carol Lynn
TTITLE1=Don't Wanna Know Why
TTITLE2=Jacksonville Skyline
TTITLE3=Reasons To Lie
TTITLE4=Don't Be Sad
TTITLE5=Sit and Listen To The Rain
TTITLE6=Under Your Breath
TTITLE7=Mirror, Mirror
TTITLE8=Paper Moon
TTITLE9=What The Devil Wanted
TTITLE10=Crazy About You
TTITLE11=My Hometown
TTITLE12=Easy Hearts
TTITLE13=Bar Lights
TTITLE14=Untitled
EXTD=170 199-2
EXTT0=
EXTT1=
EXTT2=
EXTT3=
EXTT4=
EXTT5=
EXTT6=
EXTT7=
EXTT8=
EXTT9=
EXTT10=
EXTT11=
EXTT12=
EXTT13=
EXTT14=
PLAYORDER=
